# xmcd
#
# Track frame offsets: 
#        150
#        15083
#        30703
#        42515
#        56385
#        64493
#        75523
#        88400
#        96940
#        108728
#        119978
#        135120
#        146055
#        157063
#        170833
#        182803
#
# Disc length: 2574 seconds
#
# Revision: 1
# Processed by: cddbd v1.5.2PL0 Copyright (c) Steve Scherf et al.
# Submitted via: ExactAudioCopyFreeDBPlugin 1.0
#
DISCID=e60a0c10
DTITLE=Various Artist - Country and Western [CD2)
DYEAR=1995
DGENRE=Country
TTITLE0=Lynn Anderson - Desperado
TTITLE1=Kenny Rogers - My Washington Woman
TTITLE2=Johnny Cash - Port Of Lonely Hearts
TTITLE3=Jerry Lee Lewis - Cold, Cold Heart
TTITLE4=Willie Nelson - You Wouldn't Cross The Street To Say Goodbye
TTITLE5=George Jones - I'll Share My World With You
TTITLE6=Bobby Bare - Tender Years
TTITLE7=Waylon Jennings - Abilene
TTITLE8=Pat Boone - Speedy Gonzales
TTITLE9=Patsy Cline - Just Out Of Reach
TTITLE10=Jerry Lee Lewis - Jambalaya
TTITLE11=Don Williams - Spend Some Time With Me
TTITLE12=Bobby Bare - Vampira
TTITLE13=Willie Nelson - Home is Where You're Happy
TTITLE14=Lynn Anderson - You Don't Have To Say You Love Me
TTITLE15=Freddy Fender - Before The Next Teardrop Falls
EXTD=YEAR: 1995  ID3G:   2\n
EXTT0=
EXTT1=
EXTT2=
EXTT3=
EXTT4=
EXTT5=
EXTT6=
EXTT7=
EXTT8=
EXTT9=
EXTT10=
EXTT11=
EXTT12=
EXTT13=
EXTT14=
EXTT15=
PLAYORDER=
